<svg width="156" height="33" viewBox="0 0 156 33" fill="none" xmlns="http://www.w3.org/2000/svg">
<path d="M32.0425 23.2945L23.2262 23.4596C22.929 23.4596 22.6319 23.6247 22.4337 23.8888C21.5422 25.3087 18.7686 29.271 16.2921 32.0447C15.7638 32.54 14.9053 32.4079 14.542 31.7805C14.476 31.6485 14.3769 31.5164 14.3769 31.4834C13.8486 30.2616 12.2307 23.1954 11.5042 22.3039C10.6127 21.2473 2.95215 19.3321 1.76344 18.9359C0.904931 18.6387 0.673793 17.5161 1.33419 16.8887C3.28235 15.0396 6.41921 12.431 8.66455 10.9451C8.96172 10.78 9.15984 10.4498 9.15984 10.1197L9.02776 1.73266C9.02776 1.07227 9.68816 0.576972 10.3155 0.874149C12.1976 1.66662 15.5657 3.77988 17.6789 5.62898C17.91 5.89313 18.2733 5.99219 18.6035 5.89313C20.1224 5.46388 24.3819 4.24215 28.5424 4.01102C29.1037 3.978 29.566 4.44027 29.4999 5.03462C29.3018 7.0158 28.7405 11.2753 27.8159 14.082C27.7169 14.3792 27.7499 14.6764 27.981 14.9405C28.8726 16.0962 30.9858 19.0019 32.8349 21.9077C33.1651 22.535 32.7689 23.2945 32.0425 23.2945Z" fill="white"/>
<path d="M22.0375 12.9593C22.0375 14.049 21.146 14.9735 20.0563 14.9735C18.9667 14.9735 18.0751 14.082 18.0751 12.9593C18.0751 11.8697 18.9667 10.9451 20.0563 10.9451C21.146 10.9451 22.0375 11.8697 22.0375 12.9593ZM32.0424 23.2945L23.2262 23.4596C22.929 23.4596 22.6319 23.6247 22.4337 23.8888C21.5422 25.3087 18.7686 29.271 16.2921 32.0447C15.7638 32.54 14.9053 32.4079 14.542 31.7805C14.476 31.6485 14.3769 31.5164 14.3769 31.4834C13.8486 30.2616 12.2307 23.1954 11.5042 22.3039C10.6127 21.2473 2.95215 19.3321 1.76344 18.9359C0.904931 18.6387 0.673793 17.5161 1.33419 16.8887C3.28235 15.0396 6.41921 12.431 8.66455 10.9451C8.96172 10.78 9.15984 10.4498 9.15984 10.1197L9.02776 1.73266C9.02776 1.07227 9.68816 0.576972 10.3155 0.874149C12.1976 1.66662 15.5656 3.77988 17.6789 5.62898C17.91 5.89313 18.2733 5.99219 18.6035 5.89313C20.1224 5.46388 24.3819 4.24215 28.5424 4.01102C29.1037 3.978 29.566 4.44027 29.4999 5.03462C29.3018 7.0158 28.7405 11.2753 27.8159 14.082C27.7169 14.3792 27.7499 14.6764 27.981 14.9405C28.8726 16.0962 30.9858 19.0019 32.8349 21.9077C33.1651 22.535 32.7689 23.2945 32.0424 23.2945ZM26.8584 6.94976C26.9244 6.71863 26.6933 6.48749 26.4291 6.52051C17.5138 7.44506 9.35796 13.9499 6.71639 16.2943C6.28713 16.6575 6.41921 17.351 6.94752 17.5491C6.94752 17.5491 12.6269 18.4736 13.9807 19.6293C14.9713 20.4878 15.9289 25.6389 15.9289 25.6389C16.127 26.1342 16.7544 26.2332 17.1176 25.87C24.8111 17.9783 26.5612 9.12906 26.8584 6.94976Z" fill="url(#paint0_linear_14620_4336)"/>
<path d="M11.7684 28.4126C11.7023 28.1154 11.6032 27.8182 11.5042 27.488L8.66438 30.493C8.46625 30.7241 8.36719 31.0213 8.36719 31.3185C8.36719 31.6487 8.49927 31.9459 8.73042 32.144C8.92854 32.3421 9.22573 32.4412 9.52292 32.4412C9.85313 32.4412 10.1503 32.3091 10.3815 32.078L12.2637 30.0967C12.0986 29.6344 11.9335 29.073 11.7684 28.4126Z" fill="url(#paint1_linear_14620_4336)"/>
<path d="M10.2168 23.3606C9.98562 23.1955 9.52335 23.0304 8.99503 22.8323L1.92883 30.0306C1.69769 30.2617 1.59863 30.5589 1.59863 30.8561C1.59863 31.1532 1.69769 31.4834 1.92883 31.6815C2.15997 31.8797 2.45714 32.0117 2.75432 32.0117C3.0515 32.0117 3.34867 31.9127 3.61283 31.6815L10.613 24.5493C10.4809 24.054 10.3488 23.6247 10.2168 23.3606Z" fill="url(#paint2_linear_14620_4336)"/>
<path d="M3.84365 21.2144L1.49916 23.5919C1.30103 23.823 1.16895 24.1202 1.16895 24.4174C1.16895 24.7146 1.26801 25.0448 1.49916 25.2429C1.7303 25.441 2.02749 25.5731 2.32468 25.5731C2.62187 25.5731 2.95208 25.441 3.1502 25.2429L6.41928 21.9408C5.4947 21.7097 4.57011 21.4455 3.84365 21.2144Z" fill="url(#paint3_linear_14620_4336)"/>
<path d="M11.7684 28.4126C11.7023 28.1154 11.6032 27.8182 11.5042 27.488L8.66438 30.493C8.46625 30.7241 8.36719 31.0213 8.36719 31.3185C8.36719 31.6487 8.49927 31.9459 8.73042 32.144C8.92854 32.3421 9.22573 32.4412 9.52292 32.4412C9.85313 32.4412 10.1503 32.3091 10.3815 32.078L12.2637 30.0967C12.0986 29.6344 11.9335 29.073 11.7684 28.4126Z" fill="url(#paint4_linear_14620_4336)" stroke="url(#paint5_linear_14620_4336)" stroke-opacity="0.5" stroke-width="1.06667"/>
<path d="M3.84365 21.2144L1.49916 23.5919C1.30103 23.823 1.16895 24.1202 1.16895 24.4174C1.16895 24.7146 1.26801 25.0448 1.49916 25.2429C1.7303 25.441 2.02749 25.5731 2.32468 25.5731C2.62187 25.5731 2.95208 25.441 3.1502 25.2429L6.41928 21.9408C5.4947 21.7097 4.57011 21.4455 3.84365 21.2144Z" stroke="url(#paint6_linear_14620_4336)" stroke-opacity="0.5" stroke-width="1.06667"/>
<path d="M10.2163 23.3606C9.98513 23.1955 9.52286 23.0304 8.99454 22.8323L1.92834 30.0306C1.6972 30.2617 1.59814 30.5589 1.59814 30.8561C1.59814 31.1532 1.6972 31.4834 1.92834 31.6815C2.15948 31.8797 2.45666 32.0117 2.75383 32.0117C3.05101 32.0117 3.34818 31.9127 3.61234 31.6815L10.6125 24.5493C10.4804 24.054 10.3483 23.6247 10.2163 23.3606Z" stroke="url(#paint7_linear_14620_4336)" stroke-opacity="0.5" stroke-width="1.06667"/>
<g filter="url(#filter0_ii_14620_4336)">
<path d="M32.0425 23.2945L23.2262 23.4596C22.929 23.4596 22.6319 23.6247 22.4337 23.8888C21.5422 25.3087 18.7686 29.271 16.2921 32.0447C15.7638 32.54 14.9053 32.4079 14.542 31.7805C14.476 31.6485 14.3769 31.5164 14.3769 31.4834C13.8486 30.2616 12.2307 23.1954 11.5042 22.3039C10.6127 21.2473 2.95215 19.3321 1.76344 18.9359C0.904931 18.6387 0.673793 17.5161 1.33419 16.8887C3.28235 15.0396 6.41921 12.431 8.66455 10.9451C8.96172 10.78 9.15984 10.4498 9.15984 10.1197L9.02776 1.73266C9.02776 1.07227 9.68816 0.576972 10.3155 0.874149C12.1976 1.66662 15.5657 3.77988 17.6789 5.62898C17.91 5.89313 18.2733 5.99219 18.6035 5.89313C20.1224 5.46388 24.3819 4.24215 28.5424 4.01102C29.1037 3.978 29.566 4.44027 29.4999 5.03462C29.3018 7.0158 28.7405 11.2753 27.8159 14.082C27.7169 14.3792 27.7499 14.6764 27.981 14.9405C28.8726 16.0962 30.9858 19.0019 32.8349 21.9077C33.1651 22.535 32.7689 23.2945 32.0425 23.2945Z" stroke="url(#paint8_linear_14620_4336)" stroke-width="1.06667"/>
</g>
<path d="M45.9657 14.2947C45.0258 13.4225 43.9919 13.1733 42.8327 13.1733C41.2975 13.1422 40.295 13.6406 40.295 14.6063C40.3263 15.6031 41.3602 15.9769 42.8954 16.1327C45.0885 16.3196 47.9709 16.818 47.9395 19.8708C47.9082 22.0825 45.9657 23.6089 42.864 23.6089C40.9216 23.6089 38.9791 23.1728 37.4126 21.4284L38.7285 19.6839C39.8564 20.8988 41.5169 21.4284 42.9267 21.4284C44.1173 21.4284 45.4331 20.9922 45.4645 19.902C45.4958 18.8428 44.4619 18.4379 42.7074 18.2509C40.4516 18.0329 37.8825 17.3164 37.8512 14.6997C37.8512 12.083 40.5769 11.0862 42.8014 11.0862C44.6499 11.0862 46.0597 11.4911 47.4069 12.6749L45.9657 14.2947Z" fill="#556485"/>
<path d="M53.2033 7.87758C53.2033 9.93355 50.1016 9.93355 50.1016 7.87758C50.1016 5.88391 53.2033 5.88391 53.2033 7.87758ZM50.4149 11.3354V23.2351H52.9213V11.3354H50.4149Z" fill="#556485"/>
<path d="M60.127 7.97095V11.3976H63.6047V13.547H60.0957V19.1854C60.0957 20.4314 60.6596 21.1479 61.8188 21.1479C62.2888 21.1479 62.8527 20.9921 63.354 20.7429L64.0746 22.8612C63.26 23.235 62.5394 23.3908 61.6935 23.3908C59.0931 23.4531 57.6206 21.989 57.6206 19.2165V13.5782H55.3335V11.4287H57.6206V8.22016L60.127 7.97095Z" fill="#556485"/>
<path d="M67.991 18.2198C68.2103 20.0266 69.7142 21.2103 71.876 21.2103C73.0978 21.2103 74.6017 20.743 75.3223 19.9331L76.9515 21.4907C75.7296 22.8302 73.6618 23.5155 71.8133 23.5155C67.897 23.5155 65.3906 21.0234 65.3906 17.2541C65.3906 13.6406 67.9284 11.0862 71.6567 11.0862C75.5103 11.0862 78.1107 13.4225 77.6407 18.2509L67.991 18.2198ZM75.2596 16.1327C75.103 14.2636 73.7245 13.2668 71.7193 13.2668C69.9022 13.2668 68.3983 14.2636 68.0224 16.1327H75.2596Z" fill="#556485"/>
<path d="M82.6845 11.3354V24.637C82.6845 27.6275 81.5879 29.185 78.9249 29.185C78.079 29.185 77.233 28.967 76.4185 28.4374L77.327 26.4749C77.8283 26.7241 78.3609 26.8487 78.8622 26.8487C80.0528 26.8175 80.2407 26.0076 80.2407 24.637V11.3354H82.6845ZM79.8961 7.8465C79.8961 9.90247 82.9978 9.90247 82.9978 7.8465C82.9978 5.82167 79.8961 5.82167 79.8961 7.8465Z" fill="#556485"/>
<path d="M95.6553 11.3664H98.0677C98.0677 15.3226 98.0677 19.2788 98.0677 23.235H95.6866L95.5613 21.3036C94.778 22.83 92.9296 23.5465 91.457 23.5465C87.9794 23.5776 85.3477 21.3348 85.3477 17.2851C85.3477 13.3289 88.0734 11.1172 91.5197 11.1172C93.2115 11.1172 94.8407 11.896 95.5926 13.2666L95.6553 11.3664ZM87.8541 17.2851C87.8541 19.746 89.6086 21.2413 91.739 21.2413C96.8772 21.2413 96.8772 13.3912 91.739 13.3912C89.5772 13.3912 87.8541 14.8553 87.8541 17.2851Z" fill="#556485"/>
<path d="M103.958 6.41338V13.2043C104.741 11.8025 106.684 11.086 108.156 11.086C111.603 11.086 114.203 13.2355 114.203 17.254C114.203 21.179 111.571 23.4219 108.094 23.4219C106.496 23.4219 104.898 22.83 103.958 21.3036L103.801 23.1727H101.452V6.35107L103.958 6.41338ZM104.083 17.2851C104.083 19.6215 105.807 21.1479 107.906 21.1479C109.973 21.1479 111.665 19.6526 111.665 17.2851C111.665 14.8553 109.973 13.4224 107.906 13.4224C105.838 13.4535 104.083 15.0111 104.083 17.2851Z" fill="#556485"/>
<path d="M119.341 6.41338V13.2043C120.124 11.8025 122.067 11.086 123.539 11.086C126.985 11.086 129.586 13.2355 129.586 17.254C129.586 21.179 126.954 23.4219 123.476 23.4219C121.879 23.4219 120.281 22.83 119.341 21.3036L119.184 23.1727H116.834V6.35107L119.341 6.41338ZM119.466 17.2851C119.466 19.6215 121.189 21.1479 123.288 21.1479C125.356 21.1479 127.048 19.6526 127.048 17.2851C127.048 14.8553 125.356 13.4224 123.288 13.4224C121.221 13.4535 119.466 15.0111 119.466 17.2851Z" fill="#556485"/>
<path d="M134.097 18.2198C134.317 20.0266 135.821 21.2103 137.982 21.2103C139.204 21.2103 140.708 20.743 141.429 19.9331L143.058 21.4907C141.836 22.8302 139.768 23.5155 137.92 23.5155C134.003 23.5155 131.497 21.0234 131.497 17.2541C131.497 13.6406 134.035 11.0862 137.763 11.0862C141.617 11.0862 144.217 13.4225 143.747 18.2509L134.097 18.2198ZM141.366 16.1327C141.209 14.2636 139.831 13.2668 137.826 13.2668C136.009 13.2668 134.505 14.2636 134.129 16.1327H141.366Z" fill="#556485"/>
<path d="M148.635 11.3665L148.792 12.9241C149.669 11.3977 151.016 11.0862 152.301 11.0862C153.46 11.0862 154.588 11.4911 155.246 12.083L154.118 14.2324C153.522 13.7652 152.927 13.516 152.019 13.516C150.295 13.516 148.792 14.5751 148.792 16.7557V23.1728H146.285V11.3042L148.635 11.3665Z" fill="#556485"/>
<defs>
<filter id="filter0_ii_14620_4336" x="0.419434" y="0.248291" width="33.0635" height="32.8452" filterUnits="userSpaceOnUse" color-interpolation-filters="sRGB">
<feFlood flood-opacity="0" result="BackgroundImageFix"/>
<feBlend mode="normal" in="SourceGraphic" in2="BackgroundImageFix" result="shape"/>
<feColorMatrix in="SourceAlpha" type="matrix" values="0 0 0 0 0 0 0 0 0 0 0 0 0 0 0 0 0 0 127 0" result="hardAlpha"/>
<feOffset dy="0.213333"/>
<feGaussianBlur stdDeviation="0.106667"/>
<feComposite in2="hardAlpha" operator="arithmetic" k2="-1" k3="1"/>
<feColorMatrix type="matrix" values="0 0 0 0 1 0 0 0 0 1 0 0 0 0 1 0 0 0 0.8 0"/>
<feBlend mode="normal" in2="shape" result="effect1_innerShadow_14620_4336"/>
<feColorMatrix in="SourceAlpha" type="matrix" values="0 0 0 0 0 0 0 0 0 0 0 0 0 0 0 0 0 0 127 0" result="hardAlpha"/>
<feOffset dy="0.106667"/>
<feGaussianBlur stdDeviation="0.106667"/>
<feComposite in2="hardAlpha" operator="arithmetic" k2="-1" k3="1"/>
<feColorMatrix type="matrix" values="0 0 0 0 0.441667 0 0 0 0 0.441667 0 0 0 0 0.441667 0 0 0 0.4 0"/>
<feBlend mode="normal" in2="effect1_innerShadow_14620_4336" result="effect2_innerShadow_14620_4336"/>
</filter>
<linearGradient id="paint0_linear_14620_4336" x1="28.1712" y1="4.85549" x2="8.70926" y2="24.3175" gradientUnits="userSpaceOnUse">
<stop offset="0.1745" stop-color="#52BFCA"/>
<stop offset="0.9163" stop-color="#7238DF"/>
</linearGradient>
<linearGradient id="paint1_linear_14620_4336" x1="5.8174" y1="34.8233" x2="13.4481" y2="27.3224" gradientUnits="userSpaceOnUse">
<stop offset="0.1875" stop-color="#25E2EA"/>
<stop offset="1" stop-color="#19A6D1"/>
</linearGradient>
<linearGradient id="paint2_linear_14620_4336" x1="-4.36273" y1="37.7759" x2="12.6604" y2="21.0426" gradientUnits="userSpaceOnUse">
<stop stop-color="#A443FD"/>
<stop offset="1" stop-color="#A959F3"/>
</linearGradient>
<linearGradient id="paint3_linear_14620_4336" x1="-1.62582" y1="28.2923" x2="6.81161" y2="19.9985" gradientUnits="userSpaceOnUse">
<stop offset="0.3958" stop-color="#E55EC4"/>
<stop offset="1" stop-color="#8225D0"/>
</linearGradient>
<linearGradient id="paint4_linear_14620_4336" x1="5.8174" y1="34.8233" x2="13.4481" y2="27.3224" gradientUnits="userSpaceOnUse">
<stop offset="0.1875" stop-color="#25E2EA"/>
<stop offset="1" stop-color="#19A6D1"/>
</linearGradient>
<linearGradient id="paint5_linear_14620_4336" x1="8.36719" y1="32.6805" x2="11.2725" y2="29.6672" gradientUnits="userSpaceOnUse">
<stop stop-color="white"/>
<stop offset="0.0001" stop-color="#E4FCFF"/>
<stop offset="1" stop-color="#E4FCFF" stop-opacity="0"/>
</linearGradient>
<linearGradient id="paint6_linear_14620_4336" x1="1.16895" y1="25.4538" x2="4.97917" y2="21.5605" gradientUnits="userSpaceOnUse">
<stop stop-color="white"/>
<stop offset="0.769332" stop-color="#FFF5FE" stop-opacity="0"/>
</linearGradient>
<linearGradient id="paint7_linear_14620_4336" x1="1.9657" y1="31.7205" x2="10.1524" y2="23.3472" gradientUnits="userSpaceOnUse">
<stop stop-color="white"/>
<stop offset="0.850896" stop-color="#A851F8" stop-opacity="0"/>
</linearGradient>
<linearGradient id="paint8_linear_14620_4336" x1="29.6993" y1="3.80039" x2="8.52597" y2="26.0137" gradientUnits="userSpaceOnUse">
<stop offset="0.00924772" stop-color="#2D9FAB"/>
<stop offset="0.0885417" stop-color="#2D9FAB" stop-opacity="0.823892"/>
<stop offset="0.171875" stop-color="#2D9FAB" stop-opacity="0.8"/>
<stop offset="0.302083" stop-color="#2D9FAB" stop-opacity="0.8"/>
<stop offset="1" stop-color="white" stop-opacity="0.5"/>
</linearGradient>
</defs>
</svg>
